<svg xmlns="http://www.w3.org/2000/svg" viewBox="0 0 600 170" width="600" height="170">

<rect width="600" height="170" fill="#14302A"></rect>
<g transform="translate(20,18) scale(1.34)">
  <circle cx="50" cy="50" r="50" fill="#FAF7EF"></circle>
  <g transform="translate(0,-5)">
  <path d="M50 39 C50 35 46.5 31.5 42 31.5 C37 31.5 33.5 35.5 33.5 40 C33.5 47 41 52.5 50 58.5 C59 52.5 66.5 47 66.5 40 C66.5 35.5 63 31.5 58 31.5 C53.5 31.5 50 35 50 39 Z" fill="#14533C"></path>
  <path d="M30 63 C32 74.5 40 80.5 49.5 81.5" stroke="#2E9B72" stroke-width="5.5" stroke-linecap="round" fill="none"></path>
  <path d="M70 63 C68 74.5 60 80.5 50.5 81.5" stroke="#2E9B72" stroke-width="5.5" stroke-linecap="round" fill="none"></path>
  </g>
</g>
<text x="178" y="86" class="w"><tspan fill="#7FD0A8">GES</tspan><tspan fill="#FAF7EF">CUIDA</tspan></text>
<text x="180" y="120" class="t" fill="#7FD0A8">CUIDADORAS DE CONFIANZA</text>
</svg>